<?xml version="1.0" encoding="utf-8"?>
<!-- Generator: Adobe Illustrator 15.0.0, SVG Export Plug-In . SVG Version: 6.00 Build 0)  -->
<!DOCTYPE svg PUBLIC "-//W3C//DTD SVG 1.1//EN" "http://www.w3.org/Graphics/SVG/1.1/DTD/svg11.dtd">
<svg version="1.1" id="Layer_1" xmlns="http://www.w3.org/2000/svg" xmlns:xlink="http://www.w3.org/1999/xlink" x="0px" y="0px"
	 width="50px" height="40px" viewBox="0 0 50 40" enable-background="new 0 0 50 40" xml:space="preserve">
<g>
	<path fill="#F5F6F6" d="M5.38,19.217c0,8.773,7.112,15.885,15.886,15.885s15.885-7.111,15.885-15.885S30.04,3.332,21.266,3.332
		C12.492,3.332,5.38,10.443,5.38,19.217z M13.387,8.547l4.653,7.377l-7.396-4.625l0.034-0.053l-0.362-0.227
		c0.389-0.519,0.815-1.011,1.279-1.475c0.479-0.477,0.985-0.916,1.521-1.313l0.219,0.349L13.387,8.547z M17.066,6.637l3.461,8.573
		l-0.144,2.18l-1.851-1.158L13.6,8.412l0.054-0.033L13.421,8.01c0.786-0.552,1.629-1.02,2.521-1.397
		c0.298-0.126,0.601-0.241,0.906-0.345l0.159,0.393L17.066,6.637z M23.041,19.032l1.668,0.666l-1.792,0.125l-0.022-0.036
		c0.063-0.178,0.098-0.37,0.098-0.57c0-0.047-0.002-0.093-0.007-0.14L23.041,19.032z M22.995,18.741l-0.078-0.03
		c-0.065-0.216-0.173-0.413-0.312-0.584l0.024-0.098l1.741-0.441L22.995,18.741z M23.743,21.604l-1.52-0.95
		c0.218-0.145,0.401-0.34,0.534-0.566l0.028-0.002L23.743,21.604z M21.748,17.56l-0.04-0.1l1.148-1.382l-0.435,1.744l-0.104,0.025
		C22.149,17.719,21.957,17.619,21.748,17.56z M21.957,20.797l-0.117,1.779l-0.66-1.635c0.028,0.001,0.058,0.002,0.086,0.002
		C21.512,20.943,21.746,20.892,21.957,20.797z M20.884,19.23c0-0.206,0.166-0.372,0.371-0.372c0.206,0,0.372,0.166,0.372,0.372
		c0,0.204-0.167,0.37-0.372,0.37C21.05,19.6,20.884,19.434,20.884,19.23z M20.698,17.586l-0.072-0.044l0.119-1.792l0.672,1.667
		l-0.064,0.077c-0.029-0.001-0.058-0.001-0.087-0.001C21.067,17.491,20.876,17.525,20.698,17.586z M20.855,20.893l-1.126,1.355
		l0.426-1.71C20.356,20.707,20.594,20.83,20.855,20.893z M19.54,19.217c0,0.026,0,0.051,0.002,0.076l-1.666-0.665l1.792-0.124
		l0.015,0.024C19.591,18.739,19.54,18.972,19.54,19.217z M19.582,19.593c0.058,0.265,0.179,0.508,0.345,0.712l-1.711,0.434
		L19.582,19.593z M18.842,16.723l1.523,0.952l-0.005,0.072c-0.205,0.126-0.381,0.294-0.518,0.492L19.8,18.243L18.842,16.723z
		 M21.074,5.923l0.064,0.004l-0.572,8.704l-3.267-8.089l0.059-0.023L17.209,6.15c1.253-0.39,2.557-0.593,3.89-0.609L21.074,5.923z
		 M25.273,6.134l-0.099,0.397l0.062,0.015l-2.239,8.97L21.6,17.195l-0.817-2.025l0.606-9.227l0.062,0.004l0.027-0.406
		C22.778,5.561,24.049,5.76,25.273,6.134z M29.142,8.032l-0.243,0.291l0.048,0.041l-5.577,6.705l2.112-8.463l0.062,0.015
		l0.092-0.371c0.322,0.108,0.64,0.229,0.956,0.362C27.494,6.995,28.346,7.47,29.142,8.032z M32.173,10.962l-0.315,0.263l0.041,0.048
		l-7.084,5.94l-2.117,0.538l0.528-2.119l5.914-7.108l0.049,0.041l0.259-0.312c0.523,0.393,1.021,0.823,1.489,1.291
		C31.384,9.991,31.796,10.465,32.173,10.962z M34.204,14.766l-0.386,0.099l0.016,0.061l-8.455,2.146l6.683-5.606l0.041,0.05
		l0.296-0.25c0.585,0.817,1.078,1.695,1.471,2.627C33.992,14.181,34.103,14.473,34.204,14.766z M34.94,18.922l-0.433,0.029
		l0.005,0.063l-9.224,0.642l-2.028-0.809l1.673-1.404l8.961-2.274l0.016,0.062l0.411-0.106C34.706,16.35,34.913,17.621,34.94,18.922
		z M34.353,23.207l-0.4-0.16l-0.023,0.059l-8.102-3.234l8.701-0.606l0.005,0.064l0.409-0.028
		C34.935,20.64,34.737,21.947,34.353,23.207z M32.291,27.314l0.031-0.049l0.067-0.107l0.101-0.162l-0.381-0.236l-0.033,0.053
		l-7.84-4.9l-1.165-1.847l2.178-0.151l8.587,3.425L33.812,23.4l0.417,0.166l0.023-0.059l0.027-0.066
		c-0.121,0.369-0.256,0.736-0.409,1.098C33.451,25.529,32.922,26.457,32.291,27.314z M8.662,24.539
		c-0.712-1.684-1.074-3.475-1.074-5.322c0-1.848,0.362-3.639,1.074-5.323c0.397-0.939,0.894-1.823,1.483-2.643l-0.049,0.08
		l0.38,0.237l0.033-0.053l7.84,4.901l1.165,1.848l-2.178,0.151L8.75,14.988l0.023-0.058l-0.417-0.167l-0.023,0.06l-0.094,0.234
		l-0.022,0.058l0.417,0.166l0.022-0.059l8.101,3.234l-8.701,0.606l-0.005-0.062l-0.448,0.03l0.005,0.062l0.009,0.127l0.013,0.188
		l0.448-0.031l-0.005-0.063l9.223-0.643l2.028,0.809l-1.673,1.404L8.69,23.158l-0.015-0.062l-0.436,0.111l0.016,0.061l0.031,0.123
		l0.046,0.184l0.435-0.111l-0.016-0.061l8.455-2.146l-6.684,5.604l-0.041-0.047l-0.344,0.289l0.042,0.049l0.081,0.096l0.122,0.145
		l0.344-0.289l-0.041-0.047l7.084-5.943l2.117-0.536l-0.529,2.12l-5.914,7.107l-0.048-0.041l-0.288,0.346l0.049,0.041l0.097,0.08
		l0.146,0.119l0.287-0.344l-0.048-0.039l5.578-6.707l-2.112,8.463l-0.061-0.014l-0.109,0.434l0.062,0.016l0.244,0.061l0.061,0.018
		l0.109-0.438l-0.062-0.014l2.239-8.971l1.397-1.68l0.817,2.025l-0.606,9.225l-0.062-0.004l-0.03,0.449l0.189,0.012l0.126,0.008
		l0.062,0.004l0.029-0.447L21.447,32.4l0.572-8.705l3.266,8.088l-0.059,0.025l0.168,0.416l0.059-0.023l0.117-0.049l0.176-0.07
		l-0.168-0.416l-0.059,0.023l-3.462-8.574l0.144-2.177l1.852,1.156l4.933,7.822l-0.054,0.033l0.239,0.381l0.054-0.035l0.106-0.066
		l0.161-0.102l-0.239-0.381l-0.054,0.035l-4.653-7.379l7.396,4.625l-0.033,0.053l0.38,0.238c-0.407,0.553-0.858,1.078-1.35,1.57
		c-1.257,1.258-2.719,2.242-4.348,2.934c-1.686,0.711-3.477,1.072-5.324,1.072s-3.638-0.361-5.323-1.072
		c-1.629-0.691-3.092-1.676-4.349-2.934C10.337,27.631,9.352,26.168,8.662,24.539z"/>
	<path fill="#F5F6F6" d="M4.445,19.217c0,9.289,7.531,16.822,16.821,16.822c9.29,0,16.822-7.533,16.822-16.822
		c0-9.291-7.532-16.822-16.822-16.822C11.976,2.395,4.445,9.926,4.445,19.217z M7.137,25.262c-0.802-1.896-1.209-3.912-1.209-5.991
		c0-2.078,0.407-4.093,1.209-5.991c0.776-1.832,1.886-3.479,3.299-4.893c1.414-1.413,3.06-2.523,4.893-3.299
		c1.897-0.802,3.913-1.208,5.991-1.208c2.079,0,4.094,0.406,5.992,1.208c1.833,0.776,3.479,1.887,4.893,3.299
		c1.414,1.414,2.524,3.061,3.299,4.893c0.802,1.897,1.21,3.914,1.21,5.991c0,2.079-0.481,3.841-1.322,5.827
		c-0.812,1.922-1.773,3.643-3.187,5.057c-1.414,1.416-3.06,2.525-4.893,3.299c-1.897,0.803-3.913,1.209-5.992,1.209
		c-2.078,0-4.094-0.406-5.991-1.209c-1.833-0.773-3.479-1.883-4.893-3.299C9.023,28.74,7.913,27.096,7.137,25.262z"/>
</g>
<g>
	<path fill="#938732" d="M4.457,19.217c0,8.773,7.112,15.885,15.885,15.885s15.886-7.111,15.886-15.885S29.115,3.332,20.342,3.332
		S4.457,10.443,4.457,19.217z M12.463,8.547l4.653,7.377L9.72,11.299l0.034-0.053l-0.363-0.227c0.389-0.519,0.815-1.011,1.279-1.475
		c0.477-0.477,0.985-0.916,1.52-1.313l0.22,0.349L12.463,8.547z M16.142,6.637l3.461,8.573l-0.143,2.18l-1.852-1.158l-4.932-7.82
		l0.053-0.033L12.497,8.01c0.786-0.552,1.629-1.02,2.521-1.397c0.299-0.126,0.602-0.241,0.906-0.345l0.159,0.393L16.142,6.637z
		 M22.117,19.032l1.668,0.666l-1.792,0.125l-0.022-0.036c0.063-0.178,0.097-0.37,0.097-0.57c0-0.047-0.002-0.093-0.006-0.14
		L22.117,19.032z M22.07,18.741l-0.077-0.03c-0.066-0.216-0.173-0.413-0.312-0.584l0.025-0.098l1.741-0.441L22.07,18.741z
		 M22.819,21.604l-1.52-0.95c0.218-0.145,0.401-0.34,0.534-0.566l0.028-0.002L22.819,21.604z M20.824,17.56l-0.041-0.1l1.149-1.382
		l-0.436,1.744l-0.103,0.025C21.226,17.719,21.033,17.619,20.824,17.56z M21.033,20.797l-0.117,1.779l-0.661-1.635
		c0.029,0.001,0.058,0.002,0.086,0.002C20.588,20.943,20.821,20.892,21.033,20.797z M19.959,19.23c0-0.206,0.167-0.372,0.372-0.372
		c0.206,0,0.372,0.166,0.372,0.372c0,0.204-0.166,0.37-0.372,0.37C20.126,19.6,19.959,19.434,19.959,19.23z M19.774,17.586
		l-0.071-0.044l0.118-1.792l0.673,1.667l-0.065,0.077c-0.028-0.001-0.058-0.001-0.086-0.001
		C20.143,17.491,19.953,17.525,19.774,17.586z M19.931,20.893l-1.127,1.355l0.427-1.71C19.432,20.707,19.67,20.83,19.931,20.893z
		 M18.615,19.217c0,0.026,0.001,0.051,0.002,0.076l-1.665-0.665l1.792-0.124l0.014,0.024C18.667,18.739,18.615,18.972,18.615,19.217
		z M18.658,19.593c0.058,0.265,0.178,0.508,0.345,0.712l-1.713,0.434L18.658,19.593z M17.918,16.723l1.522,0.952l-0.004,0.072
		c-0.204,0.126-0.381,0.294-0.518,0.492l-0.042,0.004L17.918,16.723z M20.15,5.923l0.063,0.004l-0.571,8.704l-3.266-8.089
		l0.059-0.023L16.286,6.15c1.253-0.39,2.557-0.593,3.89-0.609L20.15,5.923z M24.349,6.134l-0.098,0.397l0.062,0.015l-2.239,8.97
		l-1.396,1.679l-0.819-2.025l0.607-9.227l0.063,0.004l0.026-0.406C21.854,5.561,23.125,5.76,24.349,6.134z M28.218,8.032
		l-0.243,0.291l0.048,0.041l-5.578,6.705l2.111-8.463l0.062,0.015l0.093-0.371c0.322,0.108,0.64,0.229,0.954,0.362
		C26.569,6.995,27.422,7.47,28.218,8.032z M31.249,10.962l-0.314,0.263l0.04,0.048l-7.083,5.94l-2.117,0.538l0.529-2.119
		l5.914-7.108l0.048,0.041l0.259-0.312c0.523,0.393,1.021,0.823,1.489,1.291C30.46,9.991,30.872,10.465,31.249,10.962z
		 M33.279,14.766l-0.386,0.099l0.016,0.061l-8.455,2.146l6.684-5.606l0.04,0.05l0.296-0.25c0.585,0.817,1.077,1.695,1.472,2.627
		C33.068,14.181,33.179,14.473,33.279,14.766z M34.016,18.922l-0.432,0.029l0.003,0.063l-9.223,0.642l-2.028-0.809l1.673-1.404
		l8.961-2.274l0.016,0.062l0.412-0.106C33.782,16.35,33.989,17.621,34.016,18.922z M33.43,23.207l-0.402-0.16l-0.023,0.059
		l-8.101-3.234l8.701-0.606l0.004,0.064l0.41-0.028C34.011,20.64,33.813,21.947,33.43,23.207z M31.368,27.314l0.03-0.049
		l0.067-0.107l0.1-0.162l-0.38-0.236l-0.034,0.053l-7.84-4.9l-1.166-1.847l2.179-0.151l8.587,3.425L32.888,23.4l0.417,0.166
		l0.023-0.059l0.026-0.066c-0.121,0.369-0.256,0.736-0.409,1.098C32.527,25.529,31.999,26.457,31.368,27.314z M7.738,24.539
		c-0.712-1.684-1.075-3.475-1.075-5.322c0-1.848,0.362-3.639,1.075-5.323c0.397-0.939,0.894-1.823,1.483-2.643l-0.05,0.08
		l0.381,0.237l0.033-0.053l7.84,4.901l1.165,1.848l-2.178,0.151l-8.586-3.426L7.85,14.93l-0.418-0.167l-0.022,0.06l-0.094,0.234
		l-0.023,0.058l0.417,0.166l0.023-0.059l8.101,3.234l-8.701,0.606l-0.005-0.062l-0.447,0.03l0.004,0.062l0.009,0.127l0.013,0.188
		l0.447-0.031l-0.004-0.063l9.223-0.643l2.028,0.809l-1.673,1.404l-8.961,2.275l-0.015-0.062l-0.436,0.111l0.016,0.061l0.031,0.123
		l0.046,0.184l0.435-0.111l-0.016-0.061l8.455-2.146l-6.684,5.604l-0.04-0.047l-0.344,0.289l0.041,0.049l0.081,0.096l0.122,0.145
		l0.344-0.289l-0.041-0.047l7.084-5.943l2.116-0.536l-0.529,2.12l-5.914,7.107l-0.047-0.041l-0.288,0.346l0.049,0.041l0.097,0.08
		l0.145,0.119l0.287-0.344l-0.048-0.039l5.579-6.707l-2.113,8.463l-0.061-0.014l-0.108,0.434l0.062,0.016l0.245,0.061l0.062,0.018
		l0.108-0.438l-0.062-0.014l2.239-8.971l1.397-1.68l0.817,2.025l-0.606,9.225l-0.062-0.004l-0.03,0.449l0.189,0.012l0.126,0.008
		l0.063,0.004l0.029-0.447L20.523,32.4l0.571-8.705l3.266,8.088l-0.058,0.025l0.168,0.416l0.059-0.023l0.117-0.049l0.175-0.07
		l-0.167-0.416l-0.058,0.023l-3.462-8.574l0.143-2.177l1.852,1.156l4.933,7.822l-0.054,0.033l0.24,0.381l0.053-0.035l0.106-0.066
		l0.16-0.102l-0.24-0.381l-0.053,0.035l-4.654-7.379l7.396,4.625l-0.034,0.053l0.381,0.238c-0.408,0.553-0.858,1.078-1.35,1.57
		c-1.258,1.258-2.72,2.242-4.349,2.934c-1.685,0.711-3.476,1.072-5.323,1.072c-1.847,0-3.639-0.361-5.323-1.072
		c-1.628-0.691-3.092-1.676-4.348-2.934C9.414,27.631,8.427,26.168,7.738,24.539z"/>
	<path fill="#938732" d="M3.521,19.217c0,9.289,7.531,16.822,16.821,16.822c9.29,0,16.821-7.533,16.821-16.822
		c0-9.291-7.531-16.822-16.821-16.822C11.052,2.395,3.521,9.926,3.521,19.217z M6.213,25.262c-0.802-1.896-1.209-3.912-1.209-5.991
		c0-2.078,0.407-4.093,1.209-5.991c0.776-1.832,1.885-3.479,3.3-4.893c1.413-1.413,3.06-2.523,4.892-3.299
		c1.897-0.802,3.913-1.208,5.991-1.208c2.079,0,4.094,0.406,5.991,1.208c1.833,0.776,3.479,1.887,4.893,3.299
		c1.414,1.414,2.523,3.061,3.299,4.893c0.802,1.897,1.209,3.914,1.209,5.991c0,2.079-0.48,3.841-1.321,5.827
		c-0.812,1.922-1.773,3.643-3.187,5.057c-1.414,1.416-3.06,2.525-4.893,3.299c-1.896,0.803-3.913,1.209-5.991,1.209
		c-2.078,0-4.094-0.406-5.991-1.209c-1.833-0.773-3.479-1.883-4.892-3.299C8.099,28.74,6.989,27.096,6.213,25.262z"/>
</g>
<g>
	<path fill="#F5F6F6" d="M43.361,25.182c0.464-0.588,0.944-1.158,1.407-1.764c0.018-0.018,0.018-0.018,0.018-0.018
		c-0.517-0.695-1.14-1.301-1.871-1.836c0,0,0,0,0,0.018c-0.587,0.463-1.158,0.945-1.71,1.426c-0.231-0.143-0.445-0.268-0.677-0.355
		c-0.267-0.145-0.552-0.25-0.855-0.338c-0.107-0.037-0.213-0.055-0.321-0.09c-0.053-0.75-0.142-1.498-0.213-2.246
		c-0.356-0.053-0.731-0.089-1.087-0.107c-0.106,0-0.195,0-0.285,0c-0.089,0-0.178,0-0.285,0c-0.321,0.019-0.641,0.036-0.962,0.09
		c-0.071,0.748-0.142,1.497-0.213,2.243c-0.125,0.02-0.25,0.055-0.357,0.09c-0.036,0-0.071,0.02-0.107,0.02
		c-0.285,0.088-0.57,0.193-0.837,0.338c-0.231,0.088-0.446,0.213-0.659,0.355c-0.57-0.48-1.14-0.943-1.729-1.408
		c0,0-0.018-0.018-0.036-0.035c-0.124,0.107-0.268,0.215-0.392,0.32c-0.213,0.18-0.41,0.357-0.605,0.57
		c-0.303,0.285-0.57,0.623-0.82,0.963c0,0.018,0,0.018,0.018,0.018c0.463,0.588,0.926,1.158,1.407,1.709
		c-0.125,0.217-0.249,0.447-0.356,0.66c-0.125,0.285-0.249,0.57-0.321,0.873c-0.017,0-0.017,0-0.017,0.018
		c-0.036,0.107-0.071,0.232-0.089,0.375c-0.766,0.053-1.514,0.125-2.262,0.213c-0.036,0.34-0.072,0.695-0.089,1.053
		c0.017,0.533,0.053,1.049,0.142,1.549c0.731,0.088,1.461,0.16,2.209,0.213c0.018,0.125,0.054,0.25,0.089,0.375
		c0.089,0.303,0.213,0.605,0.338,0.891c0.125,0.232,0.232,0.482,0.393,0.713c-0.463,0.57-0.945,1.141-1.39,1.729
		c0.517,0.713,1.122,1.336,1.834,1.834c0,0,0,0,0.018,0c0.571-0.48,1.141-0.943,1.71-1.424c0,0,0,0,0-0.02
		c0.196,0.127,0.375,0.232,0.589,0.322c0.32,0.143,0.641,0.268,0.961,0.355c0.125,0.035,0.232,0.072,0.357,0.09
		c0.053,0.766,0.142,1.496,0.213,2.244c0.321,0.053,0.642,0.07,0.98,0.09c0.089,0,0.249,0,0.517,0
		c0.374-0.02,0.748-0.055,1.123-0.107c0.071-0.748,0.16-1.496,0.214-2.264c0.107-0.018,0.213-0.053,0.32-0.07
		c0.303-0.088,0.588-0.195,0.873-0.338c0.232-0.107,0.481-0.232,0.713-0.393c0,0,0.018,0,0.036,0.02
		c0.569,0.479,1.14,0.941,1.746,1.424c0.107-0.09,0.214-0.178,0.303-0.25c0.213-0.195,0.427-0.373,0.623-0.586
		c0.303-0.322,0.605-0.68,0.873-1.053c-0.462-0.588-0.944-1.158-1.425-1.729c-0.018,0-0.018-0.018-0.018-0.018
		c0.124-0.195,0.213-0.391,0.32-0.588c0.125-0.268,0.231-0.553,0.32-0.836c0-0.037,0.019-0.072,0.019-0.09
		c0.035-0.107,0.053-0.215,0.088-0.303c0.749-0.072,1.497-0.143,2.245-0.215c0.053-0.338,0.071-0.693,0.089-1.051
		c0-0.09,0-0.178,0-0.266c0-0.09,0-0.178,0-0.27c-0.018-0.355-0.036-0.711-0.089-1.051c-0.748-0.07-1.496-0.141-2.245-0.213
		c-0.036-0.088-0.053-0.197-0.088-0.305c-0.09-0.318-0.214-0.623-0.339-0.926C43.611,25.592,43.486,25.377,43.361,25.182z
		 M37.82,25.361c0.873,0,1.622,0.301,2.263,0.924c0.624,0.623,0.927,1.373,0.927,2.264c0,0.873-0.303,1.621-0.927,2.264
		c-0.642,0.623-1.39,0.926-2.263,0.926c-0.891,0-1.639-0.303-2.262-0.926c-0.624-0.643-0.944-1.391-0.944-2.264
		c0-0.891,0.32-1.641,0.944-2.264C36.182,25.662,36.93,25.361,37.82,25.361z"/>
	<path fill="#F5F6F6" d="M39.78,26.607c-0.535-0.535-1.176-0.803-1.942-0.803c-0.748,0-1.408,0.268-1.942,0.803
		c-0.517,0.535-0.784,1.176-0.784,1.941c0,0.748,0.268,1.389,0.784,1.924h0.018c0.535,0.533,1.176,0.803,1.924,0.803
		c0.766,0,1.407-0.27,1.942-0.803l0,0c0.534-0.535,0.802-1.176,0.802-1.924l0,0C40.583,27.783,40.314,27.143,39.78,26.607z
		 M37.838,26.5c0.57,0,1.051,0.195,1.461,0.605c0.392,0.391,0.587,0.873,0.587,1.443l0,0c0,0.57-0.195,1.033-0.587,1.443l0,0
		c-0.41,0.391-0.891,0.604-1.461,0.604c-0.553,0-1.052-0.213-1.443-0.604l0,0c-0.41-0.41-0.605-0.891-0.605-1.443
		c0-0.57,0.195-1.053,0.605-1.443C36.787,26.695,37.286,26.5,37.838,26.5z"/>
</g>
<g>
	<path fill="#2D2E2D" d="M42.745,25.488c0.464-0.586,0.945-1.158,1.407-1.762c0.018-0.02,0.018-0.02,0.018-0.02
		c-0.517-0.695-1.14-1.299-1.871-1.834c0,0,0,0,0,0.018c-0.588,0.465-1.158,0.945-1.711,1.426c-0.23-0.145-0.445-0.268-0.676-0.357
		c-0.267-0.141-0.552-0.25-0.855-0.338c-0.107-0.035-0.214-0.053-0.321-0.09c-0.053-0.746-0.143-1.496-0.214-2.245
		c-0.356-0.053-0.73-0.089-1.087-0.106c-0.106,0-0.195,0-0.285,0c-0.089,0-0.178,0-0.285,0c-0.32,0.017-0.641,0.036-0.962,0.089
		c-0.071,0.748-0.142,1.496-0.213,2.244c-0.125,0.018-0.25,0.055-0.356,0.09c-0.036,0-0.072,0.018-0.107,0.018
		c-0.285,0.088-0.57,0.197-0.837,0.338c-0.231,0.09-0.446,0.213-0.659,0.357c-0.57-0.48-1.14-0.943-1.729-1.408
		c0,0-0.018-0.018-0.036-0.035c-0.124,0.105-0.267,0.213-0.391,0.322c-0.214,0.178-0.41,0.354-0.606,0.568
		c-0.303,0.285-0.57,0.623-0.819,0.963c0,0.016,0,0.016,0.018,0.016c0.463,0.588,0.926,1.16,1.408,1.711
		c-0.125,0.215-0.25,0.445-0.357,0.66c-0.125,0.283-0.25,0.57-0.32,0.873c-0.018,0-0.018,0-0.018,0.018
		c-0.036,0.107-0.071,0.232-0.089,0.373c-0.767,0.053-1.515,0.125-2.263,0.215c-0.036,0.338-0.071,0.695-0.089,1.051
		c0.018,0.535,0.053,1.051,0.143,1.551c0.73,0.09,1.46,0.16,2.209,0.213c0.018,0.123,0.053,0.25,0.089,0.375
		c0.089,0.303,0.214,0.605,0.338,0.891c0.125,0.23,0.231,0.48,0.392,0.711c-0.463,0.57-0.944,1.141-1.39,1.729
		c0.517,0.715,1.122,1.338,1.835,1.836c0,0,0,0,0.018,0c0.57-0.48,1.14-0.943,1.709-1.426c0,0,0,0,0-0.018
		c0.197,0.125,0.375,0.232,0.588,0.322c0.321,0.141,0.642,0.266,0.962,0.354c0.125,0.037,0.231,0.072,0.356,0.09
		c0.053,0.768,0.142,1.498,0.213,2.246c0.321,0.053,0.642,0.07,0.98,0.088c0.089,0,0.25,0,0.517,0
		c0.375-0.018,0.748-0.053,1.122-0.107c0.071-0.746,0.161-1.496,0.215-2.262c0.106-0.018,0.213-0.055,0.32-0.07
		c0.303-0.09,0.588-0.197,0.873-0.338c0.232-0.107,0.481-0.232,0.713-0.393c0,0,0.018,0,0.036,0.018
		c0.57,0.48,1.14,0.943,1.746,1.426c0.107-0.09,0.214-0.178,0.303-0.25c0.214-0.197,0.427-0.375,0.624-0.588
		c0.303-0.32,0.606-0.678,0.872-1.053c-0.462-0.586-0.944-1.156-1.425-1.727c-0.018,0-0.018-0.018-0.018-0.018
		c0.124-0.197,0.214-0.393,0.32-0.588c0.125-0.268,0.232-0.553,0.321-0.838c0-0.035,0.018-0.07,0.018-0.088
		c0.035-0.107,0.053-0.215,0.089-0.305c0.748-0.07,1.496-0.141,2.245-0.213c0.053-0.338,0.071-0.695,0.088-1.051
		c0-0.088,0-0.178,0-0.268s0-0.178,0-0.268c-0.017-0.355-0.035-0.713-0.088-1.051c-0.749-0.072-1.497-0.143-2.245-0.213
		c-0.036-0.09-0.054-0.197-0.089-0.303c-0.089-0.322-0.214-0.623-0.338-0.928C42.995,25.898,42.87,25.686,42.745,25.488z
		 M37.205,25.668c0.873,0,1.621,0.303,2.262,0.926c0.624,0.623,0.927,1.371,0.927,2.262c0,0.873-0.303,1.621-0.927,2.264
		c-0.641,0.623-1.389,0.926-2.262,0.926c-0.892,0-1.64-0.303-2.263-0.926c-0.624-0.643-0.944-1.391-0.944-2.264
		c0-0.891,0.321-1.639,0.944-2.262S36.313,25.668,37.205,25.668z"/>
	<path fill="#2D2E2D" d="M39.165,26.916c-0.535-0.535-1.177-0.803-1.943-0.803c-0.748,0-1.407,0.268-1.941,0.803
		c-0.517,0.533-0.784,1.174-0.784,1.939c0,0.75,0.267,1.391,0.784,1.926h0.018c0.534,0.535,1.176,0.801,1.923,0.801
		c0.767,0,1.408-0.266,1.943-0.801l0,0c0.535-0.535,0.802-1.176,0.802-1.926l0,0C39.966,28.09,39.699,27.449,39.165,26.916z
		 M37.222,26.807c0.571,0,1.052,0.197,1.461,0.607c0.392,0.391,0.588,0.873,0.588,1.441l0,0c0,0.57-0.196,1.033-0.588,1.443l0,0
		c-0.41,0.393-0.891,0.607-1.461,0.607c-0.551,0-1.051-0.215-1.442-0.607l0,0c-0.41-0.41-0.605-0.891-0.605-1.443
		c0-0.568,0.195-1.051,0.605-1.441C36.171,27.004,36.67,26.807,37.222,26.807z"/>
</g>
</svg>
